<svg width="23" height="23" fill="none" xmlns="http://www.w3.org/2000/svg"><path d="M11.5 23c-3.072 0-5.96-1.196-8.132-3.368A11.425 11.425 0 0 1 0 11.5c0-3.072 1.196-5.96 3.368-8.132A11.425 11.425 0 0 1 11.5 0c3.072 0 5.96 1.196 8.132 3.368A11.425 11.425 0 0 1 23 11.5c0 3.072-1.196 5.96-3.368 8.132A11.425 11.425 0 0 1 11.5 23Zm0-21.203c-5.35 0-9.703 4.353-9.703 9.703s4.353 9.703 9.703 9.703 9.703-4.353 9.703-9.703S16.85 1.797 11.5 1.797Zm-.045 10.556a4.317 4.317 0 0 1-4.312-4.312 4.317 4.317 0 0 1 4.312-4.312 4.317 4.317 0 0 1 4.313 4.312 4.317 4.317 0 0 1-4.313 4.313Zm0-6.828A2.518 2.518 0 0 0 8.94 8.041a2.518 2.518 0 0 0 2.516 2.516 2.518 2.518 0 0 0 2.516-2.516 2.518 2.518 0 0 0-2.516-2.516Z" fill="#3C4852"/><path d="M16.578 17.79a.897.897 0 0 1-.695-.33 4.844 4.844 0 0 0-3.76-1.782h-1.066c-1.462 0-2.833.65-3.76 1.782a.898.898 0 0 1-1.39-1.139 6.634 6.634 0 0 1 5.15-2.44h1.066c2.002 0 3.88.89 5.15 2.44a.898.898 0 0 1-.695 1.468Z" fill="#3C4852"/></svg>
